<?xml version="1.0" encoding="UTF-8"?>
<svg width="929px" height="757px" viewBox="0 0 929 757" version="1.1" xmlns="http://www.w3.org/2000/svg" xmlns:xlink="http://www.w3.org/1999/xlink">
    <!-- Generator: Sketch 52.6 (67491) - http://www.bohemiancoding.com/sketch -->
    <title>contact</title>
    <desc>Created with Sketch.</desc>
    <g id="Page-1" stroke="none" stroke-width="1" fill="none" fill-rule="evenodd">
        <g id="contact">
            <g id="flowers" transform="translate(0.000000, 638.000000)">
                <path d="M116.669472,53.09982 C109.684952,79.69771 85.210472,96.31948 85.210472,96.31948 C85.210472,96.31948 72.060142,69.81755 79.044662,43.21966 C86.029182,16.62177 110.503662,5.68434189e-14 110.503662,5.68434189e-14 C110.503662,5.68434189e-14 123.653992,26.50193 116.669472,53.09982 Z" id="Path" fill="#F7FAFC"></path>
                <path d="M105.75117,47.15859 C86.18866,66.48575 84,95.98987 84,95.98987 C84,95.98987 113.52845,94.15846 133.091,74.83129 C152.65355,55.50412 154.84216,26 154.84216,26 C154.84216,26 125.31365,27.83142 105.75117,47.15859 Z" id="Path" fill="#DCAB3A"></path>
                <rect id="Rectangle" fill="#3F3D56" x="0" y="95" width="283" height="2"></rect>
            </g>
            <g id="mockup" transform="translate(218.000000, 0.000000)">
                <circle id="Oval" fill="#F7FAFC" cx="98.06371" cy="237.45791" r="65"></circle>
                <path d="M634.92966,153.04061 L270.68098,153.04061 L270.68098,76.82117 L634.92966,76.82117 L634.92966,153.04061 Z M272.2856,151.43595 L633.32504,151.43595 L633.32504,78.42575 L272.2856,78.42575 L272.2856,151.43595 Z" id="Shape" fill="#3F3D56" fill-rule="nonzero"></path>
                <rect id="Rectangle" fill="#DCAB3A" x="245.80936" y="92.06506" width="362.64407" height="74.61482"></rect>
                <circle id="Oval" fill="#DCAB3A" cx="16.56486" cy="15.24386" r="5.61624"></circle>
                <circle id="Oval" fill="#DCAB3A" cx="35.8203" cy="15.24386" r="5.61624"></circle>
                <circle id="Oval" fill="#DCAB3A" cx="55.07573" cy="15.24386" r="5.61624"></circle>
                <path d="M676.06372,439.66582 L0.51879,439.66582 L0.51879,0 L676.06372,0 L676.06372,439.66582 Z M2.12341,438.0612 L674.4591,438.0612 L674.4591,1.60462 L2.12341,1.60462 L2.12341,438.0612 Z" id="Shape" fill="#3F3D56" fill-rule="nonzero"></path>
                <rect id="Rectangle" fill="#3F3D56" x="1.3211" y="24.33804" width="673.9403" height="1.60462"></rect>
                <path d="M18.16961,19.25544 C14.624781,19.25544 11.75113,16.3817886 11.75113,12.83696 C11.75113,9.29213138 14.624781,6.41848 18.16961,6.41848 C21.714439,6.41848 24.58809,9.29213138 24.58809,12.83696 C24.58399,16.380089 21.712739,19.2513401 18.16961,19.25544 Z M18.16961,8.0231 C15.510989,8.0231 13.35575,10.1783385 13.35575,12.83696 C13.35575,15.4955815 15.510989,17.65082 18.16961,17.65082 C20.828231,17.65082 22.98347,15.4955815 22.98347,12.83696 C22.98039,10.1796155 20.826954,8.02618043 18.16961,8.0231 Z" id="Shape" fill="#3F3D56" fill-rule="nonzero"></path>
                <path d="M37.42505,19.25544 C33.880221,19.25544 31.00657,16.3817886 31.00657,12.83696 C31.00657,9.29213138 33.880221,6.41848 37.42505,6.41848 C40.969879,6.41848 43.84353,9.29213138 43.84353,12.83696 C43.83943,16.380089 40.968179,19.2513401 37.42505,19.25544 Z M37.42505,8.0231 C34.766429,8.0231 32.61119,10.1783385 32.61119,12.83696 C32.61119,15.4955815 34.766429,17.65082 37.42505,17.65082 C40.083671,17.65082 42.23891,15.4955815 42.23891,12.83696 C42.23583,10.1796155 40.082394,8.02618043 37.42505,8.0231 Z" id="Shape" fill="#3F3D56" fill-rule="nonzero"></path>
                <path d="M56.68049,19.25544 C53.135661,19.2554455 50.262006,16.3817986 50.262,12.83697 C50.261994,9.29214138 53.135641,6.41848552 56.68047,6.41848 C60.225299,6.41847448 63.098954,9.29212138 63.09896,12.83695 C63.09486,16.3800767 60.223617,19.2513291 56.68049,19.25544 Z M56.68049,8.0231 C54.733464,8.02309596 52.978153,9.19595273 52.233056,10.9947686 C51.487959,12.7935845 51.89981,14.8641131 53.276563,16.2408695 C54.653317,17.6176259 56.723845,18.0294812 58.522662,17.2843877 C60.32148,16.5392942 61.49434,14.7839855 61.49434,12.83696 C61.491254,10.1796217 59.337828,8.02619143 56.68049,8.0231 Z" id="Shape" fill="#3F3D56" fill-rule="nonzero"></path>
                <rect id="Rectangle" fill="#3F3D56" x="212.10922" y="25.14035" width="1.60462" height="414.34565"></rect>
                <rect id="Rectangle" fill="#F7FAFC" x="288.73293" y="228.85889" width="117.93955" height="16.0462"></rect>
                <rect id="Rectangle" fill="#F7FAFC" x="474.06652" y="228.85889" width="117.93955" height="16.0462"></rect>
                <path d="M413.89329,237.6843 L294.34912,237.6843 L294.34912,220.03348 L413.89329,220.03348 L413.89329,237.6843 Z M295.95374,236.07968 L412.28867,236.07968 L412.28867,221.6381 L295.95374,221.6381 L295.95374,236.07968 Z" id="Shape" fill="#3F3D56" fill-rule="nonzero"></path>
                <rect id="Rectangle" fill="#F7FAFC" x="288.73293" y="353.21693" width="117.93955" height="16.0462"></rect>
                <path d="M413.89329,362.04233 L294.34912,362.04233 L294.34912,344.39152 L413.89329,344.39152 L413.89329,362.04233 Z M295.95374,360.43771 L412.28867,360.43771 L412.28867,345.99614 L295.95374,345.99614 L295.95374,360.43771 Z" id="Shape" fill="#3F3D56" fill-rule="nonzero"></path>
                <rect id="Rectangle" fill="#F7FAFC" x="289.13409" y="289.43329" width="303.27314" height="16.0462"></rect>
                <path d="M599.62803,299.86332 L294.75027,299.86332 L294.75027,282.2125 L599.62803,282.2125 L599.62803,299.86332 Z M296.35486,298.2587 L598.02338,298.2587 L598.02338,283.81712 L296.35486,283.81712 L296.35486,298.2587 Z" id="Shape" fill="#3F3D56" fill-rule="nonzero"></path>
                <path d="M599.22686,237.6843 L479.6827,237.6843 L479.6827,220.03348 L599.22686,220.03348 L599.22686,237.6843 Z M481.28731,236.07968 L597.62224,236.07968 L597.62224,221.6381 L481.28731,221.6381 L481.28731,236.07968 Z" id="Shape" fill="#3F3D56" fill-rule="nonzero"></path>
                <path d="M109.06372,285.45795 C72.612927,285.45795 43.06372,255.908743 43.06372,219.45795 C43.06372,183.007157 72.612927,153.45795 109.06372,153.45795 C145.514513,153.45795 175.06372,183.007157 175.06372,219.45795 C175.022564,255.891683 145.497453,285.416794 109.06372,285.45795 Z M109.06372,155.45795 C73.717496,155.45795 45.06372,184.111726 45.06372,219.45795 C45.06372,254.804174 73.717496,283.45795 109.06372,283.45795 C144.409944,283.45795 173.06372,254.804174 173.06372,219.45795 C173.023656,184.128334 144.393336,155.498014 109.06372,155.45795 Z" id="Shape" fill="#3F3D56" fill-rule="nonzero"></path>
            </g>
            <g id="men" transform="translate(659.500000, 514.000000) scale(-1, 1) translate(-659.500000, -514.000000) translate(390.000000, 271.000000)">
                <path d="M144.73407,331.80833 L181.57547,331.80833 L272.36321,296.28269 C272.36321,296.28269 336.83566,269.96741 331.5726,319.96645 C326.30954,369.96549 317.09919,437.06945 317.09919,437.06945 C317.09919,437.06945 288.15238,423.91181 272.36319,427.8591 C256.574,431.80639 267.10013,347.59748 267.10013,347.59748 C267.10013,347.59748 138.15523,409.4384 126.31335,401.54382 C114.47147,393.64924 111.83995,338.38713 111.83995,338.38713 L144.73407,331.80833 Z" id="Path" fill="#2F2E41"></path>
                <path d="M144.73407,331.80833 L181.57547,331.80833 L272.36321,296.28269 C272.36321,296.28269 336.83566,269.96741 331.5726,319.96645 C326.30954,369.96549 317.09919,437.06945 317.09919,437.06945 C317.09919,437.06945 288.15238,423.91181 272.36319,427.8591 C256.574,431.80639 267.10013,347.59748 267.10013,347.59748 C267.10013,347.59748 138.15523,409.4384 126.31335,401.54382 C114.47147,393.64924 111.83995,338.38713 111.83995,338.38713 L144.73407,331.80833 Z" id="Path" fill="#000000" opacity="0.803729539"></path>
                <path d="M202.77793,216.43431 L247.36369,280.49352 L351.30906,367.33395 C351.30906,367.33395 447.35986,389.70195 434.20221,405.49112 C421.04456,421.28029 340.78295,389.70195 340.78295,389.70195 C340.78295,389.70195 221.0484,302.86151 217.10111,296.28268 C213.15382,289.70385 169.7336,227.86295 169.7336,227.86295 L202.77793,216.43431 Z" id="Path" fill="#A0616A"></path>
                <path d="M202.77793,216.43431 L247.36369,280.49352 L351.30906,367.33395 C351.30906,367.33395 378.179902,373.591545 401.549601,381.823504 C422.363693,389.155253 440.400513,398.053161 434.20221,405.49112 C421.04456,421.28029 340.78295,389.70195 340.78295,389.70195 C340.78295,389.70195 221.0484,302.86151 217.10111,296.28268 C213.15382,289.70385 169.7336,227.86295 169.7336,227.86295 L202.77793,216.43431 Z" id="Path" fill="#FFB8B8" opacity="0.893173"></path>
                <path d="M176.31242,164.70627 L205.25923,221.28413 C205.25923,221.28413 198.68041,248.91518 188.15429,251.54671 C177.62817,254.17824 132.8922,217.33684 132.8922,217.33684 L176.31242,164.70627 Z" id="Path" fill="#D0CDE1"></path>
                <path d="M176.31242,164.70627 L205.25923,221.28413 C205.25923,221.28413 198.68041,248.91518 188.15429,251.54671 C177.62817,254.17824 132.8922,217.33684 132.8922,217.33684 L176.31242,164.70627 Z" id="Path" fill="#FFFFFF" opacity="0.795428757"></path>
                <path d="M529.45116,302.51439 L538.00186,337.78595 C538.097187,338.179177 538.082383,338.591062 537.95907,338.97643 L499.17142,460.18769 C498.854896,461.176831 497.890553,461.810582 496.857014,461.708682 C495.823474,461.606783 495.001463,460.796909 494.8842,459.765 L489.51839,412.54584 C489.482753,412.232242 489.514916,411.914647 489.6127,411.61456 L525.21546,302.35095 C525.520669,301.414266 526.41065,300.79407 527.395072,300.832055 C528.379494,300.870041 529.219037,301.556972 529.45116,302.51439 Z" id="Path" fill="#000000"></path>
                <polygon id="Path" fill="#F7FAFC" points="534.2 335.756 499.99 446.28 492.096 412.07 526.306 305.493"></polygon>
                <path d="M353.94059,469.96358 C355.25636,473.91087 490.78008,468.64781 492.09584,467.33205 C493.24302,465.684315 494.213258,463.920209 494.99046,462.06899 C496.22736,459.43746 497.3589,456.80593 497.3589,456.80593 L492.09586,414.20148 L357.88786,409.43842 C357.88786,409.43842 354.53259,445.543 353.84837,462.06899 C353.6775,466.23995 353.6775,469.17407 353.94059,469.96358 Z" id="Path" fill="#000000"></path>
                <polygon id="Path" fill="#000000" points="474.991 419.965 477.622 456.806 418.413 456.806 418.413 419.965"></polygon>
                <polygon id="Path" fill="#000000" points="398.677 431.806 399.03 431.736 397.361 447.596 364.467 447.596 364.467 431.806"></polygon>
                <path d="M353.94059,469.96358 C355.25636,473.91087 490.78008,468.64781 492.09584,467.33205 C493.24302,465.684315 494.213258,463.920209 494.99046,462.06899 L353.8484,462.06899 C353.6775,466.23995 353.6775,469.17407 353.94059,469.96358 Z" id="Path" fill="#000000" opacity="0.1"></path>
                <circle id="Oval" fill="#FFB8B8" cx="196.04888" cy="87.07618" r="59.20939"></circle>
                <path d="M192.10159,139.70675 C192.10159,139.70675 172.36512,173.91662 168.41783,192.33732 C164.47054,210.75802 109.20844,155.49592 109.20844,155.49592 L101.97174,136.41734 C101.97174,136.41734 153.94442,112.0757 149.99713,92.33923 C146.04984,72.60276 192.10159,139.70675 192.10159,139.70675 Z" id="Path" fill="#FFB8B8"></path>
                <path d="M202.6277,242.33636 L256.57404,313.38763 L385.51894,409.43842 C385.51894,409.43842 478.9382,429.17489 457.88594,443.64829 C436.83368,458.12169 376.30856,430.49065 376.30856,430.49065 C376.30856,430.49065 246.04792,360.75514 218.41686,331.80833 C190.7858,302.86152 139.47101,254.17824 139.47101,254.17824 L202.6277,242.33636 Z" id="Path" fill="#FFB8B8"></path>
                <path d="M130.26067,352.86056 L146.04986,377.86008 L240.28116,348.21427 C260.95697,341.70953 283.62899,344.10303 301.96792,355.65656 C318.41498,366.0182 328.94109,382.46525 305.25733,406.80689 C257.88982,455.49017 226.31148,429.17489 226.31148,429.17489 C226.31148,429.17489 67.10398,504.17345 40.7887,467.33205 C14.47342,430.49065 13.1577,412.06995 13.1577,412.06995 C13.1577,412.06995 114.4715,348.91326 130.26067,352.86056 Z" id="Path" fill="#000000"></path>
                <path d="M327.62531,439.701 C327.62531,439.701 369.72976,467.33205 319.73072,480.48969 C269.73168,493.64733 232.89028,475.22663 232.89028,475.22663 C232.89028,475.22663 189.47006,475.22663 189.47006,452.85863 C189.47006,430.49063 203.94347,427.85911 203.94347,427.85911 L248.67947,434.43793 C248.67947,434.43793 302.62579,419.96454 327.62531,439.701 Z" id="Path" fill="#FFFFFF"></path>
                <path d="M244.62111,72.18172 C248.65111,73.97825 252.64732,76.10463 257.02866,76.62612 C261.41,77.14761 266.39921,75.61793 268.47242,71.72312 C269.59224,69.61939 269.7202,67.14486 269.77242,64.76223 C269.93091,57.53706 269.40836,49.72632 264.82978,44.13483 C261.91588,40.57629 257.66231,38.333 254.64604,34.86083 C252.48504,32.37322 251.0468,29.35799 249.49818,26.44942 C243.63218,15.43217 234.9469,4.84383 222.87623,1.66767 C217.83582,0.34138 212.54823,0.4061 207.33678,0.47967 L176.93953,0.90851 C172.02047,0.97791 167.02553,1.05856 162.31653,2.48234 C152.53253,5.44057 145.40874,13.66825 138.88437,21.53661 C134.00318,27.42329 129.10907,33.37086 125.44575,40.08346 C120.193526,49.879211 117.537732,60.856928 117.73152,71.97021 C117.690811,74.820413 118.058806,77.66174 118.82428,80.40753 C119.719772,82.925809 120.829248,85.362786 122.14055,87.69176 C127.84104,98.88849 131.22578,112.87395 124.80598,123.67434 C135.95785,119.11892 146.99189,113.14599 154.3483,103.60664 C157.63923,99.33916 160.22011,94.34348 164.60588,91.21192 C168.99165,88.08036 176.13788,87.80871 178.9518,92.40472 C179.919009,94.263948 180.417064,96.331427 180.4026,98.42714 C180.60811,101.87697 180.6025,105.45972 182.06518,108.59088 C183.52786,111.72204 187.01204,114.24846 190.33855,113.31149 C196.06724,111.69791 195.51864,102.90549 199.93106,98.91149 C203.282,95.87831 208.4518,96.45815 212.7568,95.08123 C217.77262,93.47695 221.53617,89.13164 223.68059,84.32184 C225.31059,80.6659 225.28704,71.09884 228.37143,69.11901 C232.23941,66.63614 241.03572,70.58338 244.62111,72.18172 Z" id="Path" fill="#FAF0BE"></path>
                <path d="M97.27156,130.17602 C99.9352211,129.46533 102.739552,129.472468 105.39956,130.19671 C113.84574,132.46424 132.77977,138.46706 136.83945,147.60133 C142.10251,159.44321 160.52321,177.86391 160.52321,177.86391 C160.52321,177.86391 185.52273,202.86343 180.25967,219.96837 C174.99661,237.07331 155.26015,256.80977 155.26015,256.80977 C155.26015,256.80977 160.52321,338.38715 134.20792,359.43938 C107.89263,380.49161 97.36652,366.0182 97.36652,385.75466 C97.36652,405.49112 15.78918,467.33205 0,429.17489 C0,429.17489 7.89459,358.12361 5.26306,333.12409 C2.66948,308.48511 6.46634,154.75932 97.27156,130.17602 Z" id="Path" fill="#FFFFFF"></path>
                <path d="M139.47102,163.3905 C139.47102,163.3905 219.73264,222.5999 205.25923,247.59942 C205.25923,247.59942 156.57595,271.28317 146.04984,269.96742 C135.52373,268.65167 94.73503,222.59991 84.20892,218.65261 C73.68281,214.70531 68.41975,143.65404 139.47102,163.3905 Z" id="Path" fill="#FFFFFF"></path>
            </g>
        </g>
    </g>
</svg>