<?xml version="1.0" encoding="UTF-8"?>
<svg width="876px" height="699px" viewBox="0 0 876 699" version="1.1" xmlns="http://www.w3.org/2000/svg" xmlns:xlink="http://www.w3.org/1999/xlink">
    <!-- Generator: Sketch 52.6 (67491) - http://www.bohemiancoding.com/sketch -->
    <title>illustration</title>
    <desc>Created with Sketch.</desc>
    <g id="Page-1" stroke="none" stroke-width="1" fill="none" fill-rule="evenodd">
        <g id="about_me" transform="translate(-564.000000, -50.000000)">
            <g id="illustration" transform="translate(564.000000, 50.000000)">
                <circle id="Oval" fill="#DCAB3A" cx="397" cy="273.146" r="130"></circle>
                <path d="M413.99997,381.14642 C341.76608,381.14642 282.99997,322.37981 282.99997,250.14593 C282.99997,177.91205 341.76608,119.14593 413.99997,119.14593 C486.23337,119.14593 544.99997,177.91204 544.99997,250.14593 C544.99997,322.37982 486.23337,381.14642 413.99997,381.14642 Z M413.99997,121.14593 C361.824194,121.145829 314.785929,152.575694 294.819077,200.779806 C274.852225,248.983918 285.888923,304.469286 322.782768,341.363132 C359.676614,378.256977 415.161982,389.293675 463.366094,369.326823 C511.570206,349.359971 543.000071,302.321706 542.99997,250.14593 C542.919483,178.934558 485.211342,121.226403 413.99997,121.1459 L413.99997,121.14593 Z" id="Shape" fill="#000000" fill-rule="nonzero"></path>
                <path d="M811.00003,441.00049 L3e-05,441.00049 L3e-05,0 L811.00003,0 L811.00003,441.00049 Z M2.00003,439.00049 L809.00003,439.00049 L809.00003,2 L2.00003,2 L2.00003,439.00049 Z" id="Shape" fill="#000000" fill-rule="nonzero"></path>
                <rect id="Rectangle" fill="#F7FAFC" x="27.00006" y="35.00009" width="178" height="18"></rect>
                <rect id="Rectangle" fill="#F7FAFC" x="294.00006" y="35.00009" width="178" height="18"></rect>
                <rect id="Rectangle" fill="#F7FAFC" x="561.00006" y="35.00009" width="178" height="18"></rect>
                <path d="M217.00003,45 L37.00003,45 L37.00003,25 L217.00003,25 L217.00003,45 Z M39.00003,43 L215.00003,43 L215.00003,27 L39.00003,27 L39.00003,43 Z" id="Shape" fill="#000000" fill-rule="nonzero"></path>
                <path d="M484.00003,45 L304.00003,45 L304.00003,25 L484.00003,25 L484.00003,45 Z M306.00003,43 L482.00003,43 L482.00003,27 L306.00003,27 L306.00003,43 Z" id="Shape" fill="#000000" fill-rule="nonzero"></path>
                <path d="M751.00003,45 L571.00003,45 L571.00003,25 L751.00003,25 L751.00003,45 Z M573.00003,43 L749.00003,43 L749.00003,27 L573.00003,27 L573.00003,43 Z" id="Shape" fill="#000000" fill-rule="nonzero"></path>
                <rect id="Rectangle" fill="#000000" x="116.47367" y="682.73757" width="827.6044" height="2.55433"></rect>
                <polygon id="Path" fill="#3F3D56" points="393.5 483.5 456.5 361.5 473.5 371.5 401.5 488.5"></polygon>
                <path d="M357.00003,510.00009 C357.00003,510.00009 368.61164,519.1235 369.92979,499.60295 C370.269678,493.334814 373.225206,487.497227 378.07604,483.51295 C383.33372,479.31216 390.90013,476.43905 400.00004,482.0001 C408.10004,486.9501 409.92254,494.1276 409.47704,500.52547 C408.669588,509.828745 403.351172,518.144595 395.24439,522.77957 C386.21718,528.13797 371.96703,532.17105 357.00004,519.0001 C357.00003,519.00009 348.00003,509.00009 357.00003,510.00009 Z" id="Path" fill="#DCAB3A"></path>
                <circle id="Oval" fill="#FFB8B8" cx="468.39689" cy="196.77542" r="24.26618"></circle>
                <path d="M455.62521,208.2699 C455.62521,208.2699 462.01105,241.47625 459.45672,247.86208 C456.90239,254.24791 495.2174,245.30775 495.2174,245.30775 C495.2174,245.30775 487.5544,212.1014 488.83156,204.4384 C490.10872,196.7754 455.62521,208.2699 455.62521,208.2699 Z" id="Path" fill="#FFB8B8"></path>
                <polygon id="Path" fill="#FFB8B8" points="413.479 323.215 416.033 357.698 428.71 411.854 432.636 426.666 439.022 403.677 432.636 351.313 430.467 327.738"></polygon>
                <path d="M547.58126,318.10631 L547.58126,353.867 C547.58126,353.867 543.74976,399.845 536.08675,411.33952 C528.42374,422.83404 525.86941,365.36152 525.86941,365.36152 L531.87413,323.215 L547.58126,318.10631 Z" id="Path" fill="#FFB8B8"></path>
                <path d="M433.91337,429.2199 C433.91337,429.2199 427.52753,436.8829 432.6362,514.7901 C437.74487,592.6973 430.08187,648.89264 446.68503,648.89264 C446.68503,648.89264 441.57636,665.49581 455.6252,666.77298 C469.67404,668.05015 476.05988,669.32731 477.33705,665.49581 C478.61422,661.66431 481.16855,643.78397 477.33705,643.78397 C477.33705,643.78397 477.33705,648.89264 479.89138,628.45797 C482.44571,608.0233 482.44572,510.95858 488.83155,498.18691 L509.26623,545.4421 C509.26623,545.4421 509.26623,567.15394 513.09773,577.37128 C516.92923,587.58862 523.31507,646.33828 523.31507,646.33828 L522.0379,655.27845 C522.0379,655.27845 552.6899,660.38712 553.96708,655.27845 C555.24426,650.16978 555.24425,642.50678 553.96708,639.95245 C552.68991,637.39812 552.68992,637.39811 555.24425,632.28945 C557.79858,627.18079 557.79859,623.34928 556.52142,619.51778 C555.24425,615.68628 555.24425,532.67041 555.24425,532.67041 C555.24425,532.67041 552.68993,431.7742 537.36392,426.66553 C522.03791,421.55686 433.91337,429.2199 433.91337,429.2199 Z" id="Path" fill="#000000"></path>
                <path d="M450.51654,656.55564 L440.29921,674.43598 C440.29921,674.43598 424.33462,668.68873 427.52753,683.37615 C454.98663,685.29191 474.14414,682.73757 474.14414,682.73757 C474.14414,682.73757 480.52998,685.29191 481.80714,681.4604 C483.0843,677.62889 478.61422,664.21865 474.78272,664.21865 C470.95122,664.21865 450.51654,656.55564 450.51654,656.55564 Z" id="Path" fill="#F7FAFC"></path>
                <path d="M524.59225,651.44697 C524.59225,651.44697 514.37491,674.43597 518.20641,675.71315 C522.03791,676.99033 556.52141,682.09899 559.07576,683.37615 C561.63011,684.65331 574.40176,685.93049 575.67894,678.26749 C576.95612,670.60449 569.2931,668.05015 569.2931,668.05015 C569.2931,668.05015 555.24426,665.49581 551.41276,652.72415 C547.58126,639.95249 524.59225,651.44697 524.59225,651.44697 Z" id="Path" fill="#F7FAFC"></path>
                <path d="M497.77173,241.47628 C497.77173,241.47628 463.28822,235.09044 455.62521,241.47628 C447.9622,247.86212 416.03303,260.63379 416.03303,267.01962 C416.03303,273.40545 432.6362,335.98662 432.6362,335.98662 C432.6362,335.98662 423.69603,430.49699 432.6362,433.05133 C441.57637,435.60567 456.90238,427.94266 474.78272,436.88283 C492.66306,445.823 543.74972,429.21983 543.74972,429.21983 C543.74972,429.21983 524.59221,347.48112 529.70088,332.15511 C534.80955,316.8291 538.64105,264.46525 538.64105,264.46525 C538.64105,264.46525 516.92924,241.47628 497.77173,241.47628 Z" id="Path" fill="#F7FAFC"></path>
                <path d="M424.9732,263.18812 L416.03303,265.74245 C416.03303,265.74245 396.87552,325.76932 404.53852,328.32365 C412.20152,330.87798 433.91337,335.98665 436.4677,335.98665 C439.02203,335.98665 424.9732,263.18812 424.9732,263.18812 Z" id="Path" fill="#F7FAFC"></path>
                <path d="M518.20641,256.80228 L538.64109,264.46528 C538.64109,264.46528 565.4616,314.2748 559.07576,320.66064 C552.68992,327.04648 524.59225,333.43231 524.59225,333.43231 L518.20641,256.80228 Z" id="Path" fill="#F7FAFC"></path>
                <path d="M467.65982,166.8032 C465.641834,166.437588 463.567544,166.529169 461.58963,167.0712 C460.006559,167.772192 458.549228,168.728176 457.27571,169.90106 C454.964822,171.742662 452.496732,173.377852 449.89986,174.7878 C447.8303,175.91129 445.60568,176.95115 444.16086,178.8107 C443.477843,179.750448 442.932422,180.782854 442.54109,181.8767 C440.052057,188.233125 439.383143,195.1573 440.60937,201.87264 C440.747191,202.826828 441.034281,203.75339 441.46011,204.61834 C442.78751,207.06399 445.71931,208.0278 448.18904,209.30984 C452.87804,211.7439 456.43247,215.84253 460.27834,219.46477 C461.706805,220.89073 463.312052,222.127828 465.05489,223.14586 C470.54157,226.13732 477.24789,225.16142 483.40696,224.10361 C484.288482,224.10191 485.132849,223.748366 485.752597,223.121472 C486.372345,222.494578 486.716185,221.646213 486.70778,220.76473 L491.5693,198.89899 C492.450528,195.659313 492.87,192.311455 492.8153,188.95451 C492.47611,183.6466 489.60251,176.29391 485.70701,172.52351 C481.16803,168.13039 473.59291,167.43132 467.65982,166.8032 Z" id="Path" fill="#FAF0BE"></path>
                <ellipse id="Oval" fill="#DCAB3A" cx="368.00006" cy="681.00009" rx="35" ry="2"></ellipse>
                <ellipse id="Oval" fill="#DCAB3A" cx="360.00006" cy="685.00009" rx="35" ry="2"></ellipse>
                <ellipse id="Oval" fill="#DCAB3A" cx="325.00006" cy="673.00009" rx="19" ry="1.08571"></ellipse>
                <ellipse id="Oval" fill="#DCAB3A" cx="393.00006" cy="697.00009" rx="19" ry="1.08571"></ellipse>
            </g>
        </g>
    </g>
</svg>