<?xml version="1.0" encoding="UTF-8"?>
<svg width="32px" height="20px" viewBox="0 0 32 20" version="1.1" xmlns="http://www.w3.org/2000/svg" xmlns:xlink="http://www.w3.org/1999/xlink">
    <!-- Generator: Sketch 52.6 (67491) - http://www.bohemiancoding.com/sketch -->
    <title>Group</title>
    <desc>Created with Sketch.</desc>
    <g id="Page-1" stroke="none" stroke-width="1" fill="none" fill-rule="evenodd">
        <g id="Group">
            <circle id="Oval" fill="#DCAB3A" cx="16" cy="10" r="10"></circle>
            <g id="festou" transform="translate(0.000000, 6.000000)" fill="#000000">
                <path d="M30.6112,2.464 C28.2512,2.2928 25.9488,2.7728 23.6352,3.128 C18.4128,3.9408 13.304,5.2704 8.1952,6.6096 C6.6256,7.0224 5.0336,7.3536 3.4416,7.664 C2.904,7.7664 2.3184,7.7104 1.7696,7.7216 C1.7232,7.7216 1.6896,7.7104 1.6432,7.6992 C1.1616,7.608 0.8864,7.3664 0.8752,7.0464 C0.8752,6.7376 1.128,6.52 1.608,6.3936 C1.848,6.336 2.0896,6.2672 2.3296,6.2096 C2.4896,6.1632 2.6384,6.0144 2.7872,6.232 C2.8096,6.2656 2.9824,6.2208 3.0736,6.1856 C4.5744,5.6816 6.0752,5.2 7.5744,4.6736 C12.0752,3.0816 16.6464,1.7184 21.3536,0.928 C23.3472,0.5952 25.3392,0.2864 27.3664,0.2528 C28.2368,0.2416 29.1072,0.2992 29.9776,0.4128 C30.3904,0.4704 30.8016,0.6992 31.1696,0.928 C31.5376,1.1568 31.64,1.592 31.5024,1.9472 C31.3872,2.2912 31.0672,2.4848 30.6096,2.4624 L30.6112,2.464 Z" id="Path"></path>
            </g>
        </g>
    </g>
</svg>