<?xml version="1.0" encoding="UTF-8"?>
<svg width="705px" height="480px" viewBox="0 0 705 480" version="1.1" xmlns="http://www.w3.org/2000/svg" xmlns:xlink="http://www.w3.org/1999/xlink">
    <!-- Generator: Sketch 52.6 (67491) - http://www.bohemiancoding.com/sketch -->
    <title>graffiti-festou</title>
    <desc>Created with Sketch.</desc>
    <g id="Page-1" stroke="none" stroke-width="1" fill="none" fill-rule="evenodd">
        <g id="graffiti-festou">
            <circle id="Oval" fill="#DCAB3A" cx="253" cy="398" r="82"></circle>
            <path d="M378.9996,384.7058 C358.3996,383.2058 338.2996,387.4048 318.1006,390.5058 C272.4996,397.6048 227.8996,409.2058 183.2996,420.9048 C169.6006,424.5058 155.6996,427.4048 141.7996,430.1048 C137.1006,431.0058 131.9996,430.5058 127.1996,430.6048 C126.7996,430.6048 126.5006,430.5058 126.1006,430.4048 C121.8996,429.6048 119.4996,427.5058 119.3996,424.7058 C119.3996,422.0058 121.6006,420.1048 125.7996,419.0058 C127.8996,418.5058 129.9996,417.9048 132.1006,417.4048 C133.4996,417.0058 134.7996,415.7058 136.1006,417.6048 C136.2996,417.9048 137.7996,417.5058 138.6006,417.2058 C151.6996,412.8058 164.7996,408.6048 177.8996,404.0058 C217.1996,390.1048 257.1006,378.2058 298.1996,371.3058 C315.6006,368.4048 332.9996,365.7058 350.6996,365.4048 C358.3006,365.3058 365.8996,365.8058 373.4996,366.8058 C377.1006,367.3058 380.6996,369.3058 383.8996,371.3058 C387.1006,373.3058 387.9996,377.1048 386.8006,380.2058 C385.8006,383.2058 382.9996,384.9048 378.9996,384.7058" id="Fill-4" fill="#000000"></path>
            <path d="M208.6002,311.0056 C221.6002,300.6056 232.7002,288.5056 242.6002,275.1056 C231.2002,287.0056 219.9002,299.0056 208.6002,311.0056 M324.7002,295.4046 C321.6002,306.2056 317.9002,316.9046 318.1002,329.1056 C326.3002,323.7056 331.7002,316.8056 337.5002,309.6056 C329.6002,307.7056 326.5002,302.2056 324.7002,295.4046 M392.3002,188.5056 C392.3002,187.1056 392.4992,185.7056 392.3002,184.4056 C391.9992,182.8056 391.3002,181.2056 390.8002,179.6056 C389.3002,180.3056 387.3002,180.6056 386.2002,181.7056 C381.4992,186.3056 376.4992,190.8056 372.4992,196.0056 C358.4992,214.2056 348.4002,234.6056 341.3002,256.5056 C338.0002,266.7056 335.1002,277.1056 335.1002,287.9046 C335.1002,290.7056 335.7002,293.5056 336.4002,296.2056 C336.8002,298.1056 338.4002,299.1056 340.3002,298.8056 C343.5002,298.3056 346.5002,297.3056 348.4002,294.4046 C359.9992,277.1056 370.7002,259.3056 378.6002,240.0056 C385.4992,223.4056 390.8002,206.4056 392.3002,188.5056 M267.7002,305.7056 C268.8002,304.5056 270.1002,303.3056 271.1002,302.0056 C282.5002,287.2056 294.1002,272.7056 305.1002,257.6056 C323.0002,233.1056 340.6002,208.4056 358.2002,183.6056 C364.2002,175.2056 369.6002,166.3056 375.3002,157.6056 C376.2002,156.2056 377.2002,154.7056 378.4002,153.4056 C380.6002,150.9056 383.6002,150.4056 385.9992,151.9056 C388.3002,153.4056 389.3002,156.2056 387.9992,159.1056 C386.7002,162.0056 385.1002,164.8056 383.4992,167.5056 C382.1002,170.0056 380.4992,172.4056 378.6002,175.5056 C380.9992,173.9056 382.7002,172.7056 384.6002,171.6056 C392.6002,167.2056 399.7002,170.1056 402.2002,178.9056 C404.1002,185.8056 403.6002,192.8056 402.4992,199.7056 C401.6002,205.9056 400.3002,212.0056 399.4002,218.3056 C399.9992,217.2056 400.4992,216.2056 401.1002,215.1056 C409.9992,197.6056 419.6002,180.5056 431.6002,164.8056 C433.2002,162.7056 434.9002,160.7056 436.8002,158.9056 C438.6002,157.2056 440.9002,156.4056 443.3002,157.8056 C445.7002,159.2056 446.3002,161.5056 445.6002,164.0056 C444.7002,167.2056 443.7002,170.5056 442.3002,173.5056 C427.9992,204.5056 412.2002,234.6056 393.2002,263.0056 C389.2002,268.9046 387.3002,276.1056 384.4002,282.8056 C384.7002,283.0056 385.1002,283.2056 385.4002,283.4046 C385.9992,282.5056 386.7002,281.7056 387.3002,280.8056 C401.7002,257.5056 416.4002,234.2056 430.4992,210.7056 C440.9992,193.2056 450.9992,175.3056 461.2002,157.6056 C462.8002,154.8056 464.6002,152.0056 466.4992,149.3056 C468.9002,145.7056 471.6002,144.7056 474.2002,146.2056 C476.7002,147.7056 477.2002,150.3056 475.6002,154.2056 C470.4992,166.4056 465.2002,178.4056 460.4002,190.7056 C445.9992,227.9046 434.3002,265.9046 425.4992,304.7056 C425.4002,305.3056 425.3002,305.9046 424.9992,307.5056 C426.4002,306.1056 427.3002,305.4046 427.9992,304.4046 C436.9992,293.3056 446.1002,282.3056 454.9002,271.1056 C480.9002,237.9046 506.1002,204.0056 532.9992,171.6056 C574.9992,120.8056 619.7002,72.3056 666.8002,26.1056 C673.7002,19.3056 681.1002,13.0056 688.4992,6.6056 C690.9002,4.5056 693.8002,2.8056 696.6002,1.2056 C697.9992,0.4056 699.7002,0.1056 701.3002,0.0056 C703.8002,-0.0944 704.8002,1.2056 704.1002,3.6056 C703.7002,5.1056 702.9992,6.7056 702.1002,8.0056 C700.8002,9.9056 699.2002,11.8056 697.6002,13.4056 C625.4002,86.5056 558.2002,164.0056 494.9002,245.0056 C478.7002,265.8056 461.7002,286.0056 444.9992,306.3056 C440.8002,311.3056 436.2002,316.0056 431.4992,320.6056 C429.4002,322.7056 426.8002,324.5056 424.2002,325.7056 C418.1002,328.5056 411.9992,325.6056 410.9002,319.0056 C410.3002,315.0056 410.2002,310.5056 411.3002,306.6056 C415.9002,289.8056 420.7002,273.0056 425.9992,256.4046 C429.9002,244.0056 434.6002,231.9046 438.9992,219.7056 C439.3002,218.9056 439.4992,218.0056 439.4002,217.0056 C438.4002,218.6056 437.4992,220.3056 436.4992,221.9056 C423.4992,243.0056 410.4992,264.1056 397.3002,285.1056 C394.3002,289.9046 390.6002,294.3056 386.9002,298.7056 C385.4002,300.5056 383.4002,302.2056 381.3002,303.3056 C376.7002,305.7056 371.8002,303.1056 371.1002,298.0056 C370.8002,295.7056 370.9992,293.3056 370.4002,290.6056 C367.2002,294.1056 363.6002,297.3056 360.9002,301.2056 C353.2002,312.2056 345.6002,323.2056 335.9002,332.4046 C332.3002,335.8056 328.3002,339.1056 324.0002,341.4046 C314.4002,346.6056 305.8002,341.7056 304.5002,330.9046 C303.5002,322.7056 304.7002,314.6056 307.1002,306.9046 C312.0002,290.9046 317.4002,275.1056 322.7002,259.3056 C323.0002,258.4046 323.4002,257.5056 323.3002,256.3056 C322.7002,257.1056 322.1002,257.9046 321.4002,258.7056 C308.6002,275.2056 296.0002,291.9046 283.0002,308.3056 C279.4002,312.8056 275.1002,316.9046 270.9002,320.9046 C269.0002,322.7056 266.7002,324.2056 264.4002,325.2056 C258.4002,327.8056 252.4002,324.5056 251.7002,318.0056 C251.3002,314.1056 251.4002,309.9046 252.6002,306.2056 C256.0002,295.0056 260.1002,284.0056 263.9002,273.0056 C264.3002,271.8056 264.8002,270.7056 264.8002,269.4046 C261.8002,273.5056 258.8002,277.6056 255.8002,281.7056 C240.9002,301.4046 223.9002,319.0056 203.5002,333.1056 C199.3002,336.0056 194.7002,338.6056 190.1002,341.0056 C188.2002,342.0056 186.0002,342.5056 183.8002,342.6056 C178.3002,342.9046 174.7002,338.3056 176.5002,333.0056 C177.2002,330.8056 178.4002,328.6056 179.9002,326.8056 C184.0002,321.6056 188.2002,316.5056 192.6002,311.5056 C223.8002,275.5056 255.1002,239.6056 286.3002,203.7056 C292.6002,196.4056 294.9002,187.5056 296.6002,178.3056 C296.7002,177.7056 296.7002,177.0056 296.6002,176.4056 C296.6002,176.0056 296.5002,175.7056 296.3002,174.7056 C294.3002,175.5056 292.2002,175.9056 290.6002,177.0056 C283.3002,182.1056 275.8002,187.0056 269.0002,192.6056 C246.4002,211.2056 226.0002,232.0056 205.5002,252.8056 C181.0002,277.5056 156.6002,302.1056 132.0002,326.6056 C126.2002,332.4046 119.9002,337.6056 113.6002,342.8056 C111.0002,344.9046 108.1002,346.8056 105.1002,348.1056 C98.1002,351.1056 92.4002,346.8056 92.8002,339.2056 C92.9002,337.9046 93.1002,336.7056 93.4002,334.5056 C92.2002,335.9046 91.6002,336.6056 90.9002,337.4046 C66.7002,367.4046 44.0002,398.6056 21.9002,430.2056 C19.2002,434.1056 16.4002,437.9046 13.5002,441.6056 C12.4002,443.0056 11.1002,444.4046 9.6002,445.3056 C5.3002,448.1056 0.0002,445.4046 0.0002,440.3056 C0.0002,437.7056 0.6002,434.8056 1.6002,432.4046 C6.0002,422.1056 10.3002,411.8056 15.2002,401.8056 C45.1002,341.2056 78.0002,282.2056 112.7002,224.3056 C113.4002,223.2056 114.0002,222.0056 114.2002,220.6056 C113.5002,221.5056 112.8002,222.3056 112.1002,223.2056 C86.3002,256.1056 60.5002,289.0056 34.5002,321.8056 C29.5002,328.1056 24.0002,334.1056 18.7002,340.2056 C17.7002,341.3056 16.8002,342.6056 15.6002,343.2056 C14.6002,343.7056 13.2002,343.4046 11.9002,343.5056 C11.9002,342.3056 11.4002,340.7056 12.0002,339.8056 C14.7002,335.9046 17.8002,332.3056 20.6002,328.6056 C45.6002,295.1056 70.5002,261.5056 95.6002,228.0056 C134.9002,175.4056 174.6002,123.1056 216.2002,72.4056 C217.0002,71.4056 217.8002,70.4056 218.7002,69.5046 C220.8002,67.5046 223.4002,67.3056 225.4002,68.8056 C227.3002,70.2056 228.0002,72.7056 226.7002,75.2056 C225.7002,77.2056 224.5002,79.2056 223.1002,81.0046 C214.3002,92.5046 205.7002,104.1056 196.6002,115.3056 C180.3002,135.5046 166.6002,157.5046 152.6002,179.3056 C109.9002,246.1056 71.6002,315.3056 36.4002,386.1056 C35.8002,387.4046 35.2002,388.7056 34.9002,390.2056 C35.4002,389.5056 36.0002,388.9046 36.4002,388.2056 C67.1002,344.0056 100.8002,302.2056 135.6002,261.2056 C148.4002,246.1056 160.4002,230.3056 173.0002,215.0056 C191.2002,193.0056 210.6002,172.1056 231.2002,152.3056 C233.2002,150.4056 235.3002,148.4056 237.6002,146.7056 C240.5002,144.6056 243.8002,144.7056 246.2002,146.8056 C248.5002,148.8056 249.2002,152.2056 247.6002,155.3056 C246.5002,157.5056 245.1002,159.5056 243.5002,161.4056 C230.8002,175.9056 218.2002,190.4056 205.4002,204.9056 C187.2002,225.4046 168.7002,245.8056 150.7002,266.5056 C137.8002,281.4046 127.9002,298.4046 117.5002,315.1056 C114.1002,320.5056 111.1002,326.2056 107.9002,331.8056 C108.1002,332.0056 108.3002,332.2056 108.5002,332.3056 C109.4002,331.6056 110.4002,330.9046 111.2002,330.1056 C123.1002,318.1056 135.3002,306.4046 147.0002,294.1056 C175.3002,264.5056 203.2002,234.3056 233.3002,206.5056 C245.2002,195.5056 257.9002,185.2056 270.5002,174.9056 C275.2002,171.1056 280.6002,168.1056 286.0002,165.4056 C289.1002,163.8056 292.7002,163.0056 296.2002,162.7056 C302.8002,162.2056 307.2002,166.0056 308.6002,172.5056 C308.8002,173.4056 309.0002,174.2056 309.3002,175.8056 C315.5002,167.5056 321.3002,159.7056 327.2002,152.0056 C327.0002,151.8056 326.9002,151.6056 326.7002,151.4056 C323.5002,151.7056 320.2002,152.0056 317.0002,152.3056 C304.6002,153.5056 292.3002,153.6056 280.2002,150.3056 C278.2002,149.8056 276.1002,149.2056 274.3002,148.2056 C273.4002,147.7056 273.0002,146.3056 272.3002,145.3056 C273.4002,144.6056 274.4002,143.4056 275.5002,143.4056 C278.8002,143.4056 282.0002,143.9056 285.3002,144.0056 C302.0002,144.4056 318.2002,141.3056 334.5002,138.1056 C335.6002,137.9056 336.7002,136.6056 337.5002,135.6056 C345.2002,124.6056 352.9002,113.5056 360.6002,102.5056 C361.4002,101.4056 362.3002,100.3056 363.3002,99.4056 C365.4002,97.6056 367.9002,97.1056 370.4002,98.5056 C372.9002,99.9056 373.9002,102.2056 373.4002,105.0056 C372.9992,106.8056 372.3002,108.7056 371.4002,110.3056 C367.6002,116.9056 363.7002,123.5056 359.8002,130.0056 C359.3002,130.8056 358.8002,131.6056 357.9992,133.1056 C363.2002,131.9056 367.8002,130.9056 372.4002,129.8056 C406.1002,122.2056 439.7002,114.5056 473.4002,106.9056 C476.6002,106.2056 479.8002,105.8056 483.1002,105.3056 C484.2002,105.2056 485.4992,105.0056 486.3002,105.4056 C487.6002,106.1056 489.4002,107.2056 489.6002,108.4056 C489.8002,109.7056 488.9002,111.9056 487.8002,112.7056 C485.9992,114.0056 483.7002,114.7056 481.6002,115.3056 C438.1002,127.2056 394.8002,139.8056 350.4002,147.7056 C349.1002,147.9056 347.5002,148.9056 346.7002,150.0056 C339.3002,160.1056 331.6002,170.1056 324.7002,180.5056 C319.4002,188.5056 315.0002,197.1056 310.6002,205.7056 C295.0002,236.0056 281.4002,267.3056 269.6002,299.3056 C268.9002,301.3056 268.2002,303.4046 267.6002,305.4046 C267.3002,305.5056 267.5002,305.6056 267.7002,305.7056" id="Fill-1" fill="#000000" fill-rule="nonzero"></path>
        </g>
    </g>
</svg>